<?xml version="1.0" encoding="utf-8"?>
<!-- Generator: Adobe Illustrator 22.1.0, SVG Export Plug-In . SVG Version: 6.00 Build 0)  -->
<svg version="1.1" id="Layer_1" xmlns="http://www.w3.org/2000/svg" xmlns:xlink="http://www.w3.org/1999/xlink" x="0px" y="0px"
	 viewBox="0 0 32 32" style="enable-background:new 0 0 32 32;" xml:space="preserve">
<style type="text/css">
	.st0{fill:#FFFFFF;}
	.st1{fill:#D9D9D9;filter:url(#Adobe_OpacityMaskFilter);}
	.st2{mask:url(#mask0_1774_12_1_);}
</style>
<path class="st0" d="M23.9,27.1H8c-1,0-1.8-0.8-1.8-1.8V11.9c0-1,0.8-1.8,1.8-1.8h15.9c1,0,1.8,0.8,1.8,1.8v13.4
	C25.7,26.3,24.9,27.1,23.9,27.1z"/>
<defs>
	<filter id="Adobe_OpacityMaskFilter" filterUnits="userSpaceOnUse" x="5.6" y="4.2" width="20.8" height="23.4">
		<feColorMatrix  type="matrix" values="1 0 0 0 0  0 1 0 0 0  0 0 1 0 0  0 0 0 1 0"/>
	</filter>
</defs>
<mask maskUnits="userSpaceOnUse" x="5.6" y="4.2" width="20.8" height="23.4" id="mask0_1774_12_1_">
	<rect x="0.4" y="0.3" class="st1" width="31.2" height="31.2"/>
</mask>
<g class="st2">
	<path d="M7.7,27.6c-0.6,0-1.1-0.2-1.5-0.6c-0.4-0.4-0.6-0.9-0.6-1.5v-14c0-0.6,0.2-1.1,0.6-1.5c0.4-0.4,0.9-0.6,1.5-0.6h3.1
		c0-1.5,0.5-2.7,1.5-3.7c1-1,2.2-1.5,3.7-1.5c1.5,0,2.7,0.5,3.7,1.5c1,1,1.5,2.2,1.5,3.7h3.1c0.6,0,1.1,0.2,1.5,0.6
		c0.4,0.4,0.6,0.9,0.6,1.5v14c0,0.6-0.2,1.1-0.6,1.5c-0.4,0.4-0.9,0.6-1.5,0.6H7.7z M7.7,26.3h16.6c0.2,0,0.4-0.1,0.6-0.2
		c0.2-0.2,0.2-0.4,0.2-0.6v-14c0-0.2-0.1-0.4-0.2-0.6c-0.2-0.2-0.4-0.2-0.6-0.2H7.7c-0.2,0-0.4,0.1-0.6,0.2
		c-0.2,0.2-0.2,0.4-0.2,0.6v14c0,0.2,0.1,0.4,0.2,0.6C7.3,26.2,7.5,26.3,7.7,26.3z M16,17.2c1.5,0,2.7-0.5,3.7-1.5
		c1-1,1.5-2.2,1.5-3.7h-1.3c0,1.1-0.4,2-1.1,2.8c-0.8,0.8-1.7,1.1-2.8,1.1s-2-0.4-2.8-1.1c-0.8-0.8-1.1-1.7-1.1-2.8h-1.3
		c0,1.5,0.5,2.7,1.5,3.7C13.3,16.7,14.5,17.2,16,17.2z M12.1,9.4h7.8c0-1.1-0.4-2-1.1-2.8C18,5.8,17.1,5.5,16,5.5s-2,0.4-2.8,1.1
		C12.5,7.4,12.1,8.3,12.1,9.4z"/>
</g>
</svg>
